<?xml version="1.0" encoding="UTF-8"?>
<svg version="1.1" xmlns="http://www.w3.org/2000/svg" width="512" height="512">
<path d="M0 0 C187.03246307 0 187.03246307 0 209.75 5.75 C210.79325439 6.00966553 211.83650879 6.26933105 212.91137695 6.53686523 C228.88003067 10.63945476 243.72692819 17.08899851 258.796875 23.68896484 C268.55144381 27.95957223 278.35236434 32.10605886 288.1875 36.1875 C289.69792094 36.81476835 291.20833756 37.44204712 292.71875 38.06933594 C295.05235784 39.03831735 297.38602579 40.00715299 299.71984863 40.97561646 C305.57161759 43.40454414 311.41973876 45.84210543 317.265625 48.28515625 C318.13694061 48.64925598 319.00825623 49.01335571 319.90597534 49.38848877 C324.3736733 51.25649616 328.83967356 53.12844728 333.30322266 55.00634766 C335.1161549 55.76868796 336.92914361 56.530894 338.7421875 57.29296875 C339.64873077 57.67402771 340.55527405 58.05508667 341.48928833 58.44769287 C347.39773914 60.92525267 353.32157907 63.36228928 359.25614929 65.77658081 C363.369913 67.4530516 367.47695372 69.14562251 371.58328247 70.84020996 C373.54366364 71.6444998 375.50705198 72.44150506 377.47360229 73.23059082 C401.48329566 82.87223187 401.48329566 82.87223187 407.5625 94.3125 C409.57797529 99.48263227 410.12475142 103.31436061 410.12304783 108.89531326 C410.12420157 109.59241548 410.12535532 110.28951771 410.12654402 111.00774424 C410.12919992 113.35392118 410.12469796 115.70003015 410.12025452 118.04620361 C410.12069183 119.73672502 410.12156853 121.42724636 410.12284851 123.11776733 C410.12509739 127.78144807 410.12106999 132.44510595 410.11607273 137.10878378 C410.11171656 142.20832948 410.11316665 147.30787406 410.11389065 152.40742111 C410.11442306 162.31358718 410.10979842 172.2197442 410.10338932 182.12590794 C410.09619971 193.58052156 410.09539514 205.03512972 410.09460449 216.48974609 C410.08935049 246.7431655 410.07538942 276.99658288 410.0625 307.25 C410.041875 374.8175 410.02125 442.385 410 512 C274.7 512 139.4 512 0 512 C0 343.04 0 174.08 0 0 Z " fill="#148CCD" transform="translate(51,0)"/>
<path d="M0 0 C187.03246307 0 187.03246307 0 209.75 5.75 C210.79325439 6.00966553 211.83650879 6.26933105 212.91137695 6.53686523 C228.88003067 10.63945476 243.72692819 17.08899851 258.796875 23.68896484 C268.55144381 27.95957223 278.35236434 32.10605886 288.1875 36.1875 C289.69792094 36.81476835 291.20833756 37.44204712 292.71875 38.06933594 C295.05235784 39.03831735 297.38602579 40.00715299 299.71984863 40.97561646 C305.57161759 43.40454414 311.41973876 45.84210543 317.265625 48.28515625 C318.13694061 48.64925598 319.00825623 49.01335571 319.90597534 49.38848877 C324.3736733 51.25649616 328.83967356 53.12844728 333.30322266 55.00634766 C335.1161549 55.76868796 336.92914361 56.530894 338.7421875 57.29296875 C339.64873077 57.67402771 340.55527405 58.05508667 341.48928833 58.44769287 C347.39773914 60.92525267 353.32157907 63.36228928 359.25614929 65.77658081 C363.369913 67.4530516 367.47695372 69.14562251 371.58328247 70.84020996 C373.54366364 71.6444998 375.50705198 72.44150506 377.47360229 73.23059082 C401.48329566 82.87223187 401.48329566 82.87223187 407.5625 94.3125 C409.57797529 99.48263227 410.12475142 103.31436061 410.12304783 108.89531326 C410.12420157 109.59241548 410.12535532 110.28951771 410.12654402 111.00774424 C410.12919992 113.35392118 410.12469796 115.70003015 410.12025452 118.04620361 C410.12069183 119.73672502 410.12156853 121.42724636 410.12284851 123.11776733 C410.12509739 127.78144807 410.12106999 132.44510595 410.11607273 137.10878378 C410.11171656 142.20832948 410.11316665 147.30787406 410.11389065 152.40742111 C410.11442306 162.31358718 410.10979842 172.2197442 410.10338932 182.12590794 C410.09619971 193.58052156 410.09539514 205.03512972 410.09460449 216.48974609 C410.08935049 246.7431655 410.07538942 276.99658288 410.0625 307.25 C410.041875 374.8175 410.02125 442.385 410 512 C274.7 512 139.4 512 0 512 C0 343.04 0 174.08 0 0 Z M23 22 C23 176.11 23 330.22 23 489 C143.12 489 263.24 489 387 489 C387.11649757 420.84766613 387.11649757 420.84766613 387.1953125 352.6953125 C387.20314438 343.51595023 387.21122642 334.33658824 387.21972656 325.15722656 C387.22130906 323.4314225 387.22130906 323.4314225 387.22292352 321.67075372 C387.24033644 303.07892112 387.27188032 284.48713784 387.30861118 265.89533451 C387.3459737 246.825229 387.36822591 227.75514937 387.37635398 208.68500876 C387.38185149 196.91095064 387.39923537 185.13703183 387.43166587 173.36301658 C387.4527559 165.29693068 387.45921258 157.23091716 387.45400551 149.16480568 C387.45143512 144.50610147 387.45546623 139.84764128 387.4768219 135.1889801 C387.49621386 130.92773337 387.49731825 126.66689593 387.48359558 122.4056308 C387.48189829 120.86047416 387.48703484 119.31529252 387.49953273 117.7701855 C387.51549272 115.67603783 387.5069936 113.58338439 387.49219131 111.48926163 C387.4937102 110.32427965 387.49522908 109.15929768 387.49679399 107.95901322 C386.89077657 104.34944148 385.84309248 103.22974135 383 101 C380.10335153 99.48631939 380.10335153 99.48631939 376.828125 98.23046875 C375.61406982 97.73756348 374.40001465 97.2446582 373.14916992 96.73681641 C371.84948572 96.2202792 370.54976165 95.70384229 369.25 95.1875 C367.26004049 94.3843083 365.27153691 93.57758757 363.28312683 92.77056885 C361.97679508 92.24058072 360.67000428 91.7117226 359.36274719 91.184021 C354.59431829 89.25609908 349.87857386 87.2328322 345.1875 85.125 C340.15923716 82.89141543 335.10294002 80.88305959 329.9375 79 C324.75060383 77.10906819 319.72890412 75.01875538 314.75 72.625 C309.38633475 70.05421201 303.97433471 67.73468768 298.4375 65.5625 C288.22843701 61.54590401 278.11166986 57.31685588 268 53.0625 C267.16407318 52.71118011 266.32814636 52.35986023 265.46688843 51.99789429 C256.1659627 48.08512524 246.90908961 44.1115833 237.75 39.875 C229.03419025 35.8800617 220.20930157 32.66436302 211 30 C210.2270459 29.77328613 209.4540918 29.54657227 208.65771484 29.31298828 C151.63454537 13.03227493 73.86781233 22 23 22 Z " fill="#000101" transform="translate(51,0)"/>
<path d="M0 0 C87.12 0 174.24 0 264 0 C264 7.59 264 15.18 264 23 C176.88 23 89.76 23 0 23 C0 15.41 0 7.82 0 0 Z " fill="#F8FBFD" transform="translate(124,289)"/>
<path d="M0 0 C87.12 0 174.24 0 264 0 C264 7.59 264 15.18 264 23 C176.88 23 89.76 23 0 23 C0 15.41 0 7.82 0 0 Z " fill="#F9FCFD" transform="translate(124,240)"/>
<path d="M0 0 C86.46 0 172.92 0 262 0 C262 7.26 262 14.52 262 22 C175.54 22 89.08 22 0 22 C0 14.74 0 7.48 0 0 Z " fill="#FFFFFF" transform="translate(125,387)"/>
<path d="M0 0 C86.46 0 172.92 0 262 0 C262 7.26 262 14.52 262 22 C175.54 22 89.08 22 0 22 C0 14.74 0 7.48 0 0 Z " fill="#FFFFFF" transform="translate(125,338)"/>
<path d="M0 0 C86.46 0 172.92 0 262 0 C262 7.26 262 14.52 262 22 C175.54 22 89.08 22 0 22 C0 14.74 0 7.48 0 0 Z " fill="#FFFFFF" transform="translate(125,192)"/>
<path d="M0 0 C25.63111805 0.94088914 49.14009292 6.49498362 72.59326172 16.93359375 C76.73207221 18.76746718 80.89941422 20.53461378 85.0625 22.3125 C86.83469961 23.07276705 88.60683354 23.8331872 90.37890625 24.59375 C107.12913413 31.7711501 123.92739675 38.82992067 140.77929688 45.76489258 C146.63682513 48.17865868 152.47582826 50.6269969 158.29296875 53.13671875 C163.50864295 55.3806716 168.75035128 57.49772856 174.0625 59.5 C180.26313009 61.87390326 186.2855612 64.46154335 192.28125 67.3203125 C198.31986963 70.12047886 204.55788591 72.49569549 210.75097656 74.92919922 C211.67362305 75.29803223 212.59626953 75.66686523 213.546875 76.046875 C214.38057617 76.37526367 215.21427734 76.70365234 216.07324219 77.04199219 C218 78 218 78 219 80 C217.97519531 80.226875 216.95039063 80.45375 215.89453125 80.6875 C211.76030638 81.87612861 208.85139098 84.15967215 205.6875 87 C205.12844971 87.48694336 204.56939941 87.97388672 203.9934082 88.47558594 C199.57108141 92.37263137 195.39839605 96.49744252 191.28125 100.71484375 C188.55553497 103.4452261 185.68834642 105.95925315 182.75390625 108.4609375 C181.12603798 109.88940097 179.6224559 111.37455769 178.125 112.9375 C176 115 176 115 174 115 C172.625 113.6015625 172.625 113.6015625 171 111.625 C168.13954645 108.25204852 165.15130339 105.10326523 162 102 C159.06881809 99.10408042 156.23596826 96.19757429 153.5625 93.0625 C150.69827567 89.71074813 147.63664403 86.59444939 144.5 83.5 C141.46770728 80.50822564 138.49845693 77.50847987 135.75 74.25 C131.61324647 69.39031867 127.01404248 64.98699015 122.48071289 60.50244141 C119.25819758 57.30198987 116.11400709 54.10328289 113.1875 50.625 C86.68345744 19.56975822 44.20336776 6.98797606 4.9375 3.6875 C1.62627468 3.43416473 -1.68522568 3.20153903 -5 3 C-5 2.67 -5 2.34 -5 2 C-3.35 1.67 -1.7 1.34 0 1 C0 0.67 0 0.34 0 0 Z " fill="#D5D5D7" transform="translate(216,23)"/>
<path d="M0 0 C44.22 0 88.44 0 134 0 C134 7.26 134 14.52 134 22 C89.78 22 45.56 22 0 22 C0 14.74 0 7.48 0 0 Z " fill="#FFFFFF" transform="translate(125,143)"/>
<path d="M0 0 C12.71091808 4.45228165 25.30932296 17.17240658 33.70703125 27.515625 C35.87424485 30.00366478 38.43664052 31.92749659 41 34 C45.6975089 38.3772242 45.6975089 38.3772242 47.0625 41.1875 C47.85430743 43.16130182 47.85430743 43.16130182 49.8828125 43.9140625 C52.19653692 45.10080676 53.19718331 46.17169157 54.8125 48.1875 C58.47811145 52.53693484 62.45771173 56.50593379 66.5 60.5 C70.96424515 64.91990014 75.3176551 69.3435781 79.37109375 74.1484375 C82.71680555 77.95147681 86.38316877 81.45698165 90 85 C90.76183594 84.29875 91.52367187 83.5975 92.30859375 82.875 C97.88232474 77.75147936 103.4733615 72.65469901 109.16015625 67.65625 C110.26280365 66.66363324 111.34365149 65.64463312 112.375 64.578125 C114.74520859 62.27628781 117.32633392 60.26641814 119.9375 58.25 C120.46279297 57.82589844 120.98808594 57.40179688 121.52929688 56.96484375 C125.45706492 53.94650886 125.45706492 53.94650886 128.37890625 54.234375 C128.91386719 54.48703125 129.44882812 54.7396875 130 55 C129.46632813 55.40089844 128.93265625 55.80179688 128.3828125 56.21484375 C120.31041986 62.37388381 112.82879854 69.0682996 105.71875 76.3125 C103.20335274 78.78216276 100.53313912 81.05996971 97.859375 83.35546875 C96.19983315 84.82325682 94.65641767 86.33851979 93.125 87.9375 C91 90 91 90 89 90 C87.625 88.6015625 87.625 88.6015625 86 86.625 C83.13954645 83.25204852 80.15130339 80.10326523 77 77 C74.06881809 74.10408042 71.23596826 71.19757429 68.5625 68.0625 C65.69827567 64.71074813 62.63664403 61.59444939 59.5 58.5 C56.46770728 55.50822564 53.49845693 52.50847987 50.75 49.25 C46.61324647 44.39031867 42.01404248 39.98699015 37.48071289 35.50244141 C34.25819758 32.30198987 31.11400709 29.10328289 28.1875 25.625 C21.44103634 17.72297077 13.29720728 11.5539126 4.82617188 5.62963867 C3.18405457 4.46548573 1.58718313 3.23800284 0 2 C0 1.34 0 0.68 0 0 Z " fill="#E6F3F9" transform="translate(301,48)"/>
<path d="M0 0 C25.63111805 0.94088914 49.14009292 6.49498362 72.59326172 16.93359375 C76.73207372 18.76746784 80.89944857 20.53453012 85.0625 22.3125 C86.80342991 23.05979218 88.54431409 23.80719093 90.28515625 24.5546875 C96.84889283 27.367551 103.42371727 30.15411818 110 32.9375 C111.11640869 33.41034424 112.23281738 33.88318848 113.38305664 34.37036133 C114.43227295 34.81404053 115.48148926 35.25771973 116.5625 35.71484375 C117.95662109 36.30446899 117.95662109 36.30446899 119.37890625 36.90600586 C121.90980696 37.96235516 124.45089207 38.98848124 127 40 C127 40.66 127 41.32 127 42 C124.12361482 41.91256271 121.25015438 41.8056265 118.375 41.6875 C117.56675781 41.66494141 116.75851562 41.64238281 115.92578125 41.61914062 C108.11306736 41.26979163 103.48884809 38.66311599 97.5625 33.5625 C93.52870759 30.17896374 89.68079343 27.39240553 85 25 C84.67 25.66 84.34 26.32 84 27 C83.05125 26.443125 82.1025 25.88625 81.125 25.3125 C54.71690209 10.30729692 25.01391296 4.82485275 -5 3 C-5 2.67 -5 2.34 -5 2 C-3.35 1.67 -1.7 1.34 0 1 C0 0.67 0 0.34 0 0 Z " fill="#AAD7EA" transform="translate(216,23)"/>
<path d="M0 0 C4.47338011 0.67649649 8.40923833 2.30374649 12.53125 4.08984375 C13.24478638 4.39443008 13.95832275 4.69901642 14.69348145 5.01283264 C16.96426892 5.98324442 19.23218075 6.96017445 21.5 7.9375 C23.7684266 8.9097861 26.03741892 9.88074152 28.30651855 10.85145569 C29.71500586 11.45458334 31.12299135 12.05888465 32.53039551 12.66453552 C36.00253305 14.15711932 39.48308915 15.61599911 43 17 C43 17.66 43 18.32 43 19 C40.12361482 18.91256271 37.25015438 18.8056265 34.375 18.6875 C33.56675781 18.66494141 32.75851562 18.64238281 31.92578125 18.61914062 C24.15390752 18.27161782 19.52543133 15.69487208 13.625 10.625 C9.26377715 6.96181145 4.86666932 3.93836638 0 1 C0 0.67 0 0.34 0 0 Z " fill="#9C9EA5" transform="translate(300,46)"/>
<path d="M0 0 C0.58007812 0.22042969 1.16015625 0.44085938 1.7578125 0.66796875 C1.22414063 1.06886719 0.69046875 1.46976562 0.140625 1.8828125 C-7.94963849 8.05548758 -15.44515426 14.76646821 -22.5703125 22.02734375 C-25.32856065 24.73403586 -28.27926761 27.18879089 -31.2421875 29.66796875 C-31.9021875 29.33796875 -32.5621875 29.00796875 -33.2421875 28.66796875 C-32.83379639 28.27005127 -32.42540527 27.87213379 -32.00463867 27.4621582 C-30.14097702 25.64030523 -28.28531566 23.81050204 -26.4296875 21.98046875 C-25.78708984 21.35462891 -25.14449219 20.72878906 -24.48242188 20.08398438 C-21.1569172 16.79294089 -18.55269153 13.77059449 -16.2421875 9.66796875 C-14.29236215 8.26228071 -12.28268172 6.93846515 -10.2421875 5.66796875 C-8.20438957 4.04244208 -6.17837928 2.40621615 -4.171875 0.7421875 C-2.2421875 -0.33203125 -2.2421875 -0.33203125 0 0 Z " fill="#EFF6FA" transform="translate(429.2421875,102.33203125)"/>
<path d="M0 0 C10.13114935 0.46105829 20.00299865 1.2092328 30 3 C29.34 3.99 28.68 4.98 28 6 C26.18628906 5.80083984 26.18628906 5.80083984 24.3359375 5.59765625 C14.56424414 4.53871416 4.81171235 3.60823013 -5 3 C-5 2.67 -5 2.34 -5 2 C-3.35 1.67 -1.7 1.34 0 1 C0 0.67 0 0.34 0 0 Z " fill="#85CBE8" transform="translate(216,23)"/>
<path d="M0 0 C6.85332014 -0.38792378 12.46993393 1.00044873 19 3 C19.96550781 3.28617188 20.93101562 3.57234375 21.92578125 3.8671875 C24.28691842 4.56851537 26.64462813 5.27959342 29 6 C28.67 6.99 28.34 7.98 28 9 C23.35948533 7.85297191 18.72157066 6.69636092 14.08691406 5.52587891 C12.23342641 5.05882083 10.37852905 4.59736508 8.5234375 4.13671875 C7.54632813 3.88535156 6.56921875 3.63398438 5.5625 3.375 C4.69753906 3.15585937 3.83257812 2.93671875 2.94140625 2.7109375 C1 2 1 2 0 0 Z " fill="#96D0E8" transform="translate(243,27)"/>
<path d="M0 0 C10.01171133 3.47121378 18.3418117 11.90263862 26 19 C25.34 19.66 24.68 20.32 24 21 C23.10539062 20.21496094 22.21078125 19.42992188 21.2890625 18.62109375 C14.97878305 13.12605972 8.74046217 7.85798359 1.6953125 3.3046875 C1.13585937 2.87414063 0.57640625 2.44359375 0 2 C0 1.34 0 0.68 0 0 Z " fill="#C8E6F4" transform="translate(301,48)"/>
<path d="M0 0 C8.57142857 -0.14285714 8.57142857 -0.14285714 12 1 C12 1.66 12 2.32 12 3 C13.03060547 2.98259766 13.03060547 2.98259766 14.08203125 2.96484375 C14.98308594 2.95582031 15.88414062 2.94679687 16.8125 2.9375 C17.70582031 2.92589844 18.59914063 2.91429687 19.51953125 2.90234375 C22 3 22 3 25 4 C25 4.66 25 5.32 25 6 C22.12361482 5.91256271 19.25015438 5.8056265 16.375 5.6875 C15.56675781 5.66494141 14.75851562 5.64238281 13.92578125 5.61914062 C8.94209446 5.39629284 5.31468781 4.75622802 1 2 C0.67 1.34 0.34 0.68 0 0 Z " fill="#AAACB2" transform="translate(318,59)"/>
<path d="M0 0 C1.65 0 3.3 0 5 0 C5 0.66 5 1.32 5 2 C5.68964844 1.95359375 6.37929688 1.9071875 7.08984375 1.859375 C14.05222682 1.59195837 18.90475947 2.62880524 25 6 C25 6.66 25 7.32 25 8 C22.36 7.67 19.72 7.34 17 7 C17 6.34 17 5.68 17 5 C16.10796875 4.97421875 15.2159375 4.9484375 14.296875 4.921875 C12.54117187 4.83679687 12.54117187 4.83679687 10.75 4.75 C9.58984375 4.70359375 8.4296875 4.6571875 7.234375 4.609375 C3.53338618 3.91208725 2.32877571 2.88214816 0 0 Z " fill="#A2A4AA" transform="translate(313,55)"/>
<path d="M0 0 C3.55060608 0.60867533 6.83461241 1.24145134 10 3 C10.33 4.65 10.66 6.3 11 8 C7.37 6.02 3.74 4.04 0 2 C0 1.34 0 0.68 0 0 Z " fill="#BBDCEB" transform="translate(290,42)"/>
<path d="M0 0 C5.46737191 1.74807129 10.75824848 3.65794081 16 6 C12.67465243 7.10844919 10.37817425 6.84454356 7 6 C7 5.34 7 4.68 7 4 C6.01 4 5.02 4 4 4 C4 3.34 4 2.68 4 2 C2.68 2 1.36 2 0 2 C0 1.34 0 0.68 0 0 Z " fill="#9799A0" transform="translate(410,92)"/>
<path d="M0 0 C1.29608947 0.93137592 2.58671632 1.8703566 3.875 2.8125 C4.59429687 3.33457031 5.31359375 3.85664062 6.0546875 4.39453125 C8 6 8 6 10 9 C6.22089522 9 5.53893899 8.00296038 2.8125 5.5 C2.09707031 4.8503125 1.38164062 4.200625 0.64453125 3.53125 C0.10183594 3.0259375 -0.44085938 2.520625 -1 2 C-0.67 1.34 -0.34 0.68 0 0 Z " fill="#D3ECF6" transform="translate(317,59)"/>
<path d="M0 0 C8.57142857 -0.14285714 8.57142857 -0.14285714 12 1 C12 1.66 12 2.32 12 3 C10.37581255 3.08090971 8.75048255 3.13914995 7.125 3.1875 C5.76761719 3.23970703 5.76761719 3.23970703 4.3828125 3.29296875 C3.20332031 3.14794922 3.20332031 3.14794922 2 3 C1.34 2.01 0.68 1.02 0 0 Z " fill="#B1B4BA" transform="translate(318,59)"/>
<path d="M0 0 C1.4589426 0.47730838 2.91713496 0.95691042 4.375 1.4375 C5.18710937 1.70433594 5.99921875 1.97117187 6.8359375 2.24609375 C9 3 9 3 11 4 C11 4.66 11 5.32 11 6 C8.36 5.67 5.72 5.34 3 5 C3 4.34 3 3.68 3 3 C2.34 3 1.68 3 1 3 C0.67 2.01 0.34 1.02 0 0 Z " fill="#95979D" transform="translate(356,69)"/>
<path d="M0 0 C1.953125 0.35807292 3.90625 0.71614583 5.859375 1.07421875 C4.869375 2.55921875 4.869375 2.55921875 3.859375 4.07421875 C0.559375 3.74421875 -2.740625 3.41421875 -6.140625 3.07421875 C-2.140625 0.07421875 -2.140625 0.07421875 0 0 Z " fill="#75BBD9" transform="translate(240.140625,24.92578125)"/>
<path d="M0 0 C2.31 0 4.62 0 7 0 C7 0.99 7 1.98 7 3 C3.04 3 -0.92 3 -5 3 C-5 2.67 -5 2.34 -5 2 C-3.35 1.67 -1.7 1.34 0 1 C0 0.67 0 0.34 0 0 Z " fill="#69BEE2" transform="translate(216,23)"/>
<path d="M0 0 C2.97 0.99 5.94 1.98 9 3 C9 3.66 9 4.32 9 5 C6.36 4.67 3.72 4.34 1 4 C0.67 2.68 0.34 1.36 0 0 Z " fill="#93959B" transform="translate(387,82)"/>
<path d="M0 0 C3.34373475 0.55728913 6.03312999 1.35173889 9 3 C5.99727245 3.96516243 3.95784231 4.22393475 1 3 C0.67 2.01 0.34 1.02 0 0 Z " fill="#ACBAC3" transform="translate(426,99)"/>
</svg>
