<?xml version="1.0" encoding="UTF-8"?>
<svg version="1.1" xmlns="http://www.w3.org/2000/svg" width="512" height="512">
<path d="M0 0 C0.88460862 -0.00367669 1.76921723 -0.00735338 2.68063217 -0.01114148 C5.64509064 -0.02215506 8.60951402 -0.02601826 11.57398987 -0.02983093 C13.69976919 -0.03609748 15.82554742 -0.04274445 17.95132446 -0.04974365 C24.93434387 -0.07076871 31.91736345 -0.08114656 38.90040588 -0.09111023 C41.30751621 -0.09515877 43.71462643 -0.09927572 46.12173653 -0.10346031 C57.43478161 -0.12251082 68.74782018 -0.13674054 80.06087822 -0.14507228 C93.10165168 -0.15483586 106.14225501 -0.18113316 119.18296856 -0.22157317 C129.27322735 -0.25178495 139.36343753 -0.26654608 149.45374066 -0.26985329 C155.47480608 -0.27219854 161.49568973 -0.2810903 167.51670647 -0.30631447 C173.18764475 -0.32968784 178.85828276 -0.33379117 184.52925682 -0.32355309 C186.60197705 -0.32305982 188.67471253 -0.32931795 190.74738693 -0.34310913 C210.63104993 -0.46792594 225.93814252 2.67350054 240.89649963 16.74092102 C251.90599654 28.15817707 256.38898347 41.69191402 256.33033752 57.26167297 C256.33048355 58.27677444 256.33062958 59.29187592 256.33078003 60.33773804 C256.33008436 63.68699799 256.32230811 67.03620206 256.31446838 70.38545227 C256.31260298 72.71001149 256.31117965 75.03457111 256.31018066 77.35913086 C256.30636516 83.47307931 256.29654309 89.58700394 256.28547668 95.70094299 C256.27524181 101.94147927 256.27067859 108.18201939 256.26564026 114.42256165 C256.25491998 126.66410856 256.23785512 138.90563781 256.21681213 151.14717102 C256.80812424 151.13898849 257.39943634 151.13080597 258.00866699 151.12237549 C260.73296937 151.08954696 263.4572299 151.06945932 266.18165588 151.04951477 C267.57644165 151.02987671 267.57644165 151.02987671 268.99940491 151.00984192 C284.98858688 150.92231629 299.45818025 155.94767238 311.27931213 167.02998352 C324.74471977 181.74419912 327.98568391 196.81542305 327.84791565 216.0851593 C327.85306659 217.93818341 327.86035666 219.79120259 327.86959839 221.64421082 C327.88796847 226.63182764 327.8752666 231.6189036 327.85550809 236.60649729 C327.83900534 241.85076325 327.84795031 247.09499808 327.85302734 252.33927917 C327.85753459 261.14007613 327.84176166 269.94065959 327.81373596 278.7414093 C327.78167045 288.88843171 327.78171211 299.03506972 327.79895073 309.18211949 C327.81486096 318.98254938 327.80805466 328.78283955 327.79101372 338.5832634 C327.78417573 342.7368585 327.78514198 346.89034049 327.79255867 351.04393387 C327.8002681 355.9410907 327.78794457 360.83781442 327.76070976 365.73489761 C327.75387418 367.52260046 327.75367552 369.31034414 327.76092529 371.09804535 C327.82368644 388.60215045 324.45765239 403.75379161 311.96681213 416.95967102 C301.65439295 426.60790049 288.74108561 433.38240323 274.40431213 433.20967102 C273.42849182 433.20064758 272.45267151 433.19162415 271.44728088 433.18232727 C270.34319885 433.16492493 270.34319885 433.16492493 269.21681213 433.14717102 C269.36118713 434.20033508 269.50556213 435.25349915 269.65431213 436.33857727 C273.44755793 465.23130905 273.44755793 465.23130905 268.21681213 473.14717102 C263.12858795 479.45015143 258.17563458 483.61435493 250.01759338 484.49092102 C241.6324866 484.85352023 236.19349257 483.68341051 229.21681213 479.14717102 C228.50315491 478.69100403 227.78949768 478.23483704 227.05421448 477.7648468 C222.97500642 475.14937879 218.91988319 472.49813893 214.90040588 469.79170227 C214.2151886 469.33126526 213.52997131 468.87082825 212.82398987 468.3964386 C211.21681213 467.14717102 211.21681213 467.14717102 210.21681213 465.14717102 C210.37923401 463.50748352 210.37923401 463.50748352 210.54493713 461.83467102 C210.59806014 457.94940408 210.59806014 457.94940408 207.51368713 455.45967102 C206.3479568 454.66401381 205.16466884 453.89358708 203.96681213 453.14717102 C203.3802887 452.74111633 202.79376526 452.33506165 202.18946838 451.91670227 C198.99789026 449.66939318 198.99789026 449.66939318 195.27458191 449.51075745 C194.59551788 449.72077393 193.91645386 449.93079041 193.21681213 450.14717102 C189.03187326 450.92387975 185.66000168 451.13060306 182.03938293 448.66340637 C180.49706119 447.28501257 178.95767198 445.90333358 177.42051697 444.5191803 C159.3905542 428.99790467 136.35167786 432.24635797 113.95582581 432.81813049 C105.08022676 433.02667068 96.2019328 433.0821146 87.32440567 433.15584564 C84.25820133 433.19306934 81.1944116 433.26415586 78.12901306 433.34242249 C59.11310982 433.72716358 44.72522577 429.89646284 30.53712463 416.55342102 C20.57834549 406.2257982 14.98981715 393.22088816 15.15431213 378.89717102 C15.15882385 378.1520929 15.16333557 377.40701477 15.16798401 376.63935852 C15.17971967 374.80859462 15.19765363 372.97787229 15.21681213 371.14717102 C-10.70366174 369.95280704 -10.70366174 369.95280704 -32.95115662 381.63301086 C-36.02748141 384.17557035 -39.40601106 386.21929654 -42.78318787 388.33467102 C-44.18938591 389.24158976 -45.594284 390.15052656 -46.99803162 391.06123352 C-55.9380131 396.83205579 -64.89947636 402.56927732 -73.87205505 408.28926086 C-76.49387593 409.96252964 -79.11143908 411.64225582 -81.72850037 413.32295227 C-83.14222557 414.22322175 -84.55626038 415.12300532 -85.97068787 416.02217102 C-86.58694031 416.4205719 -87.20319275 416.81897278 -87.83811951 417.22944641 C-95.43883062 422.0286031 -102.58979056 423.54115319 -111.36912537 421.56513977 C-118.2181797 419.25753531 -122.81447474 415.15860413 -126.78318787 409.14717102 C-131.61723567 397.64276505 -128.43262263 383.17920853 -126.78318787 371.14717102 C-128.63943787 371.23998352 -128.63943787 371.23998352 -130.53318787 371.33467102 C-145.48596945 371.24136193 -159.72961619 364.24055965 -170.31053162 353.94013977 C-182.95679776 339.65565273 -185.3917591 324.7708133 -185.30076599 306.43623352 C-185.3061972 304.58350579 -185.31332542 302.73078238 -185.32200623 300.87806702 C-185.34012381 295.88214623 -185.33322016 290.88655867 -185.32048988 285.89063263 C-185.31030192 280.64101317 -185.31977156 275.39142061 -185.32603455 270.14179993 C-185.33329415 261.32908553 -185.32376763 252.51650559 -185.30467224 243.70381165 C-185.28290681 233.54207138 -185.28995937 223.38065224 -185.31197786 213.21891975 C-185.33018004 204.46520824 -185.33266669 195.71159292 -185.32222319 186.95786858 C-185.31601468 181.74237181 -185.31507939 176.52702555 -185.32836914 171.3115387 C-185.33999739 166.40621802 -185.33177554 161.50130791 -185.30879211 156.59603119 C-185.30354206 154.80509876 -185.30495459 153.01413126 -185.31384277 151.2232132 C-185.39753678 132.6331691 -181.19765787 118.28068909 -168.18553162 104.46748352 C-156.84122175 93.51054033 -142.73614408 89.011923 -127.22068787 88.83467102 C-125.94548279 88.79116516 -125.94548279 88.79116516 -124.64451599 88.7467804 C-118.43864768 88.68350488 -118.43864768 88.68350488 -115.19334412 90.97920227 C-113.78318787 93.14717102 -113.78318787 93.14717102 -113.78318787 96.14717102 C-107.18318787 96.14717102 -100.58318787 96.14717102 -93.78318787 96.14717102 C-93.45318787 94.49717102 -93.12318787 92.84717102 -92.78318787 91.14717102 C-89.14013923 88.71847193 -86.47596448 88.89041427 -82.27146912 88.95185852 C-81.54324448 88.95468842 -80.81501984 88.95751831 -80.06472778 88.96043396 C-77.74154649 88.97161845 -75.4187524 88.99671936 -73.09568787 89.02217102 C-71.51952156 89.03220308 -69.94334921 89.04132854 -68.36717224 89.04951477 C-64.5056952 89.07155206 -60.64450715 89.10606961 -56.78318787 89.14717102 C-56.7936615 88.15499573 -56.80413513 87.16282043 -56.81492615 86.14057922 C-56.85161696 82.39631376 -56.87426342 78.65206355 -56.89305115 74.90766907 C-56.90299855 73.29891777 -56.9165613 71.690184 -56.93406677 70.08149719 C-57.15528763 49.20215248 -54.43583131 31.34011788 -39.65818787 15.52217102 C-32.4071267 8.53966768 -23.55842929 3.58629076 -13.78318787 1.14717102 C-13.09736602 0.97473279 -12.41154417 0.80229456 -11.70493984 0.62463093 C-7.80136433 -0.01327428 -3.94362207 -0.00088223 0 0 Z " fill="#010100" transform="translate(184.78318786621094,13.852828979492188)"/>
<path d="M0 0 C2.11829223 -0.0070646 4.23657941 -0.01581189 6.3548584 -0.02610779 C12.08851049 -0.04855308 17.8218859 -0.04567294 23.55556512 -0.03678632 C28.35154396 -0.03166449 33.14747136 -0.03897887 37.94344491 -0.04625839 C49.26361216 -0.06324271 60.58364456 -0.05970711 71.90380859 -0.04296875 C83.56002114 -0.02605567 95.21585895 -0.04187438 106.87203056 -0.07419163 C116.89955669 -0.1009343 126.9269665 -0.10815068 136.9545247 -0.09967655 C142.93469095 -0.09476019 148.91463192 -0.09689288 154.89476967 -0.11746407 C160.52154928 -0.13589405 166.14779252 -0.1297729 171.77454376 -0.10526466 C173.83154982 -0.10027965 175.88859726 -0.103686 177.94556999 -0.11641312 C192.36161529 -0.19850596 204.64083685 0.74775917 216.1550293 10.52954102 C226.39679383 20.81139073 229.6526197 32.21749526 229.68212891 46.40440369 C229.67276011 48.07705915 229.66298094 49.74971236 229.65283203 51.42236328 C229.65662129 53.21069767 229.66212631 54.99902912 229.66920471 56.78735352 C229.68309643 61.61585828 229.67203435 66.44400421 229.6554935 71.27248883 C229.64157982 76.34067348 229.64811017 81.40883863 229.65162659 86.47703552 C229.65432348 94.98474874 229.64089711 103.49232046 229.61767578 112 C229.59106082 121.81862498 229.58932365 131.63701361 229.60106415 141.45566231 C229.61186406 150.9250359 229.60563803 160.39432447 229.59150887 169.86369133 C229.58576913 173.88298504 229.58581584 177.90221612 229.59057426 181.9215107 C229.59536623 186.6584869 229.58515086 191.39520611 229.56361961 196.13213348 C229.55808203 197.86465781 229.55755842 199.59720698 229.56257248 201.32973289 C229.59857075 215.55853752 228.11394979 227.82315211 218.11206055 238.76391602 C207.07719988 249.15540142 195.27475096 251.84365257 180.5378418 251.92407227 C179.63163086 251.94727539 178.72541992 251.97047852 177.79174805 251.99438477 C176.97222656 252.00260254 176.15270508 252.01082031 175.30834961 252.01928711 C172.99654468 252.36762214 172.99654468 252.36762214 171.37011719 254.35473633 C169.53979926 257.62606764 170.0298425 260.2103461 170.33862305 263.90844727 C170.39397217 264.61235596 170.44932129 265.31626465 170.50634766 266.04150391 C170.90104109 270.712305 171.5174778 275.33502345 172.21362305 279.97094727 C174.23418517 293.63305574 174.23418517 293.63305574 172.1003418 297.37719727 C169.52819316 300.59427992 167.60555178 302.33432905 163.52612305 302.89282227 C158.87912322 302.39800284 155.97896489 300.34493542 152.15112305 297.78344727 C151.4653418 297.34000977 150.77956055 296.89657227 150.07299805 296.43969727 C147.49951089 294.76987735 144.94002574 293.08604785 142.42724609 291.32592773 C138.77456836 288.78449195 136.64574493 287.93416435 132.15112305 288.53344727 C131.16112305 289.19344727 130.17112305 289.85344727 129.15112305 290.53344727 C122.63902283 290.08969257 116.77789459 285.88290442 112.15112305 281.53344727 C111.48520562 278.88707412 111.60461983 277.25325957 112.2175293 274.61157227 C112.19561523 273.92579102 112.17370117 273.24000977 112.15112305 272.53344727 C110.52673028 271.14892435 108.84393959 269.83341946 107.15112305 268.53344727 C106.50881241 267.93884705 105.86650177 267.34424683 105.20472717 266.73162842 C84.77205115 248.11248872 61.39256866 250.54472581 35.29962158 251.20440674 C26.32697321 251.41308797 17.35164079 251.46831862 8.37708282 251.54212189 C5.27594658 251.57938562 2.17718457 251.65046763 -0.92315674 251.72869873 C-17.09842889 252.0535039 -29.4978883 250.09443874 -41.8449707 238.68969727 C-49.81744739 230.32288302 -52.99908138 220.41133213 -52.99604797 209.05880737 C-52.99972466 208.31500639 -53.00340135 207.57120541 -53.00718945 206.804865 C-53.01818615 204.31708718 -53.0220633 201.82935118 -53.02587891 199.34155273 C-53.03214663 197.55572885 -53.0387937 195.76990626 -53.04579163 193.98408508 C-53.06679905 188.12294416 -53.07719145 182.26180307 -53.0871582 176.40063477 C-53.09120711 174.37978222 -53.09532407 172.35892981 -53.09950829 170.33807755 C-53.11855327 160.84202319 -53.13278533 151.34597658 -53.14112025 141.8499068 C-53.15088809 130.90323752 -53.17719873 119.95677069 -53.21762115 109.01017272 C-53.24782297 100.53948005 -53.26259302 92.06884528 -53.26590127 83.59809983 C-53.26824723 78.5434769 -53.2771486 73.48907043 -53.30236244 68.43450546 C-53.32571917 63.67544156 -53.32984592 58.91673548 -53.31960106 54.15762901 C-53.31910742 52.41744608 -53.32537673 50.67724507 -53.3391571 48.93711662 C-53.44966881 34.14659894 -51.04345186 22.83536393 -40.84887695 11.53344727 C-37.7104088 8.76933888 -34.53934974 6.49869903 -30.84887695 4.53344727 C-30.27597836 4.20141328 -29.70307978 3.86937929 -29.11282063 3.52728367 C-19.98438664 -0.97686438 -9.92029648 -0.03479048 0 0 Z " fill="#FD9637" transform="translate(267.848876953125,180.466552734375)"/>
<path d="M0 0 C6.6 0 13.2 0 20 0 C20.99 1.98 21.98 3.96 23 6 C24.84640431 7.84640431 27.85931363 7.13685767 30.33045959 7.14476013 C30.99945563 7.14828698 31.66845167 7.15181382 32.35772032 7.15544754 C34.61617258 7.16618531 36.87458275 7.16982436 39.13305664 7.17358398 C40.74582093 7.17988564 42.35858346 7.18665101 43.97134399 7.19384766 C47.45373739 7.20854869 50.93612391 7.22026105 54.41853523 7.22979546 C59.92785434 7.24521926 65.43711549 7.26917054 70.94639587 7.29469299 C86.6161635 7.36596439 102.28596501 7.42559453 117.95581055 7.47680664 C126.60308754 7.50514338 135.25030756 7.54054761 143.89752477 7.58346039 C149.37048839 7.61019313 154.84338751 7.62812337 160.31640351 7.63949764 C163.7300415 7.64864907 167.14360159 7.66602374 170.55719376 7.68567657 C172.13574048 7.69312606 173.71430723 7.69723156 175.29287148 7.69767189 C190.64820724 7.70541088 203.51827961 10.04303831 215 21 C222.28166155 29.41627942 226.26209141 38.17778425 226.09765625 49.359375 C226.08355713 50.60686523 226.06945801 51.85435547 226.05493164 53.13964844 C226.0368042 54.08356445 226.01867676 55.02748047 226 56 C225.05945015 56.00546844 225.05945015 56.00546844 224.09989929 56.01104736 C217.52871643 56.05310484 210.95821698 56.12261121 204.38745117 56.20751953 C201.94058086 56.23561293 199.49362175 56.25688483 197.04663086 56.27099609 C193.51370158 56.29258662 189.98182693 56.33932114 186.44921875 56.390625 C185.36855637 56.39185364 184.28789398 56.39308228 183.17448425 56.39434814 C175.75311084 56.53502543 169.79999299 58.06472591 163 61 C162.27668991 61.3003717 161.55337982 61.60074341 160.80815125 61.91021729 C147.28466264 67.72365461 138.90214765 79.16588405 133.04296875 92.1640625 C129.83189159 100.89530603 129.69383575 109.12778462 129.68115234 118.3203125 C129.67184313 119.86827614 129.66167299 121.4162348 129.65071106 122.96418762 C129.62350887 127.14745426 129.60829079 131.3306874 129.59528303 135.51401901 C129.57960952 139.89292981 129.55283282 144.27177265 129.5272522 148.65063477 C129.48053896 156.93413744 129.44375885 165.21765301 129.41057932 173.50121975 C129.37230516 182.93536702 129.32290891 192.36944591 129.27259517 201.80353546 C129.16938624 221.20230687 129.08009005 240.60112006 129 260 C127.89712646 259.9779248 126.79425293 259.95584961 125.65795898 259.93310547 C121.49190635 259.86338913 117.32790466 259.86140032 113.16137695 259.87792969 C111.3722053 259.87600533 109.58295153 259.85668881 107.79418945 259.81835938 C94.8249442 259.55657478 86.70628241 261.50571519 76.57950306 269.75631332 C74.0955169 271.71218195 71.44996884 273.34466505 68.76953125 275.01953125 C67.30374634 275.95418213 67.30374634 275.95418213 65.80834961 276.90771484 C64.81971924 277.53629395 63.83108887 278.16487305 62.8125 278.8125 C55.83344865 283.26277204 48.86281915 287.72386993 41.93139648 292.24804688 C39.49294236 293.83883085 37.04965477 295.42194766 34.60546875 297.00390625 C31.54739273 298.98455208 28.51234413 300.99521053 25.48828125 303.02734375 C24.07586449 303.95625191 22.6631215 304.88466429 21.25 305.8125 C20.6305249 306.23966309 20.0110498 306.66682617 19.37280273 307.10693359 C14.61687325 310.18783908 11.48290647 310.55690254 6 310 C3.1899654 308.20636089 1.49059532 306.98119065 0 304 C0.03878044 301.44049128 0.14413489 298.92661675 0.3125 296.375 C0.35882568 295.6217041 0.40515137 294.8684082 0.45288086 294.09228516 C0.89013542 287.54779175 1.68062772 281.07876723 2.59765625 274.5859375 C3.69843025 268.15651886 3.69843025 268.15651886 1.75439453 262.32373047 C-0.42402975 260.68005994 -1.60779402 260.61906682 -4.31640625 260.59375 C-5.57940552 260.5642627 -5.57940552 260.5642627 -6.86791992 260.53417969 C-7.75713135 260.52290039 -8.64634277 260.51162109 -9.5625 260.5 C-23.54100385 260.04783832 -34.61980249 256.62774504 -45.14453125 247.02734375 C-53.55940223 237.83298999 -56.11270979 227.58565356 -56.14044189 215.39201355 C-56.14341302 214.65804881 -56.14638414 213.92408407 -56.1494453 213.16787797 C-56.15806905 210.72543224 -56.15963513 208.28303588 -56.16113281 205.84057617 C-56.16576539 204.08239133 -56.17079064 202.32420748 -56.17617798 200.56602478 C-56.18925973 195.80145737 -56.19573841 191.03690402 -56.20018864 186.27232146 C-56.20312559 183.2923735 -56.20723151 180.31242933 -56.21169281 177.33248329 C-56.22535526 167.99928595 -56.23502861 158.66609734 -56.2388947 149.33289069 C-56.24337554 138.57643916 -56.26092993 127.82011471 -56.2898953 117.06370181 C-56.31153744 108.73650676 -56.3216003 100.4093474 -56.32293582 92.08212453 C-56.32398183 87.11423651 -56.32984642 82.14646814 -56.34775543 77.17860985 C-56.36428044 72.50410416 -56.36637017 67.82980753 -56.35761642 63.15528297 C-56.35684848 61.44532332 -56.36115661 59.73535221 -56.37107468 58.02542114 C-56.45232618 43.13744033 -54.49705402 31.36086241 -44.1171875 19.92578125 C-34.36986434 10.82959506 -22.98073551 7.69837255 -9.96484375 7.609375 C-5.57503956 7.5158031 -5.57503956 7.5158031 -2.046875 5.1484375 C-0.89509414 2.9040881 -0.89509414 2.9040881 0 0 Z " fill="#FDCF5A" transform="translate(71,110)"/>
<path d="M0 0 C0.85995844 -0.00367669 1.71991689 -0.00735338 2.60593468 -0.01114148 C5.49291614 -0.0221707 8.37986159 -0.02602093 11.26686096 -0.02983093 C13.33500279 -0.03609633 15.40314349 -0.0427432 17.47128296 -0.04974365 C24.26975216 -0.07078346 31.06822158 -0.08114835 37.86671448 -0.09111023 C40.20914789 -0.0951583 42.55158119 -0.09927524 44.89401436 -0.10346031 C55.90325117 -0.12251454 66.91248128 -0.13674313 77.92173141 -0.14507228 C90.61614391 -0.15483547 103.31038161 -0.18113015 116.00473255 -0.22157317 C125.82404489 -0.25177897 135.64330726 -0.26654554 145.46266514 -0.26985329 C151.32330745 -0.27219935 157.18376307 -0.28110163 163.04435539 -0.30631447 C168.56425698 -0.32967715 174.08385007 -0.33379544 179.60378838 -0.32355309 C181.62210112 -0.32305955 183.64042948 -0.32932577 185.65869522 -0.34310913 C201.42003369 -0.44466353 215.40108159 0.60695612 227.48780823 11.95967102 C236.73084948 21.79775784 239.88868955 33.1297158 239.78517151 46.32685852 C239.78541258 47.32895355 239.78565365 48.33104858 239.78590202 49.36351013 C239.78441818 52.58315646 239.76922813 55.80256653 239.75343323 59.02217102 C239.75048991 61.01956572 239.74845125 63.01696197 239.74732971 65.01435852 C239.73687581 72.39198633 239.70895327 79.76958103 239.68312073 87.14717102 C239.64187073 103.64717102 239.60062073 120.14717102 239.55812073 137.14717102 C201.93812073 137.14717102 164.31812073 137.14717102 125.55812073 137.14717102 C125.22812073 132.19717102 124.89812073 127.24717102 124.55812073 122.14717102 C120.69321639 106.68755365 113.82661818 93.49662222 100.37062073 84.33467102 C91.41965403 78.99439047 80.98052673 75.06725285 70.47711182 74.98895264 C69.47736832 74.97916382 68.47762482 74.969375 67.44758606 74.95928955 C66.36217529 74.95353409 65.27676453 74.94777863 64.15846252 74.94184875 C63.00681107 74.93194916 61.85515961 74.92204956 60.66860962 74.91184998 C56.86487376 74.88028167 53.06112542 74.85549587 49.25733948 74.83076477 C46.6188932 74.81019122 43.98045018 74.78919464 41.3420105 74.76779175 C35.10899158 74.71794303 28.87594743 74.6729753 22.64287931 74.62976938 C15.54492417 74.58033003 8.44701448 74.52543681 1.34910333 74.47008979 C-13.24784782 74.35638987 -27.84484421 74.24952487 -42.44187927 74.14717102 C-42.56665706 68.52794749 -42.65676749 62.90955253 -42.71653748 57.28926086 C-42.7414861 55.38254221 -42.77545786 53.47591723 -42.81907654 51.5695343 C-43.17887116 35.42533776 -41.15772303 23.37662767 -29.66844177 11.27998352 C-21.19642933 3.22292679 -11.46630931 -0.00262812 0 0 Z " fill="#0472CD" transform="translate(186.44187927246094,28.852828979492188)"/>
<path d="M0 0 C1.0003125 0.35191406 2.000625 0.70382813 3.03125 1.06640625 C22.76103987 8.61454556 35.30514995 23.1556206 44.51953125 41.60546875 C50.77017876 55.93742835 51.74538731 76.35361494 46 91 C45.5978125 92.10472656 45.195625 93.20945312 44.78125 94.34765625 C37.09257476 113.97513555 22.96661148 127.37881296 4 136 C3.34 136 2.68 136 2 136 C2.06960937 136.89460937 2.13921875 137.78921875 2.2109375 138.7109375 C2.60188836 147.44217328 1.81993845 153.29227433 -4 160 C-9.55482962 165.29031392 -15.05623048 167.97012148 -22.75 168.4375 C-29.57549478 168.26301367 -35.02566098 165.67243243 -40.078125 161.1328125 C-46.87494396 153.79339035 -48.56743771 147.22692728 -48.5 137.4375 C-48.49355469 136.46385498 -48.48710938 135.49020996 -48.48046875 134.48706055 C-48.12292034 120.28509671 -42.92438366 108.92438366 -32.82421875 98.82421875 C-27.31992414 94.05999737 -21.27247575 90.90225745 -14.62109375 88.05200195 C-8.50126174 85.27744721 -5.93212555 81.49622718 -2.6875 75.625 C-0.80076265 68.42109375 -1.81488476 62.76436885 -5.3671875 56.23828125 C-8.59379282 51.81520745 -12.90661485 49.69779505 -18 48 C-24.83632503 47.25929693 -30.35739328 47.90314078 -36 52 C-41.45875282 57.19484365 -43.11842287 61.81158134 -43.75 69.1875 C-44.6821581 77.61152266 -47.70350862 83.14192057 -53.875 88.875 C-60.47434583 93.36255517 -67.00199469 95.2583851 -75 94 C-83.86356371 91.13822158 -89.06954239 85.63201364 -93.9375 77.9375 C-98.49081004 65.38743919 -93.91247712 49.94647213 -88.57104492 38.42675781 C-85.42133139 32.00374431 -81.77084542 26.31979207 -77 21 C-76.32195312 20.24074219 -75.64390625 19.48148438 -74.9453125 18.69921875 C-56.33368569 -1.0052616 -25.82851628 -9.45779493 0 0 Z " fill="#020202" transform="translate(143,135)"/>
<path d="M0 0 C1.09441406 -0.01160156 2.18882812 -0.02320313 3.31640625 -0.03515625 C13.97254082 0.00267618 23.71093739 2.07864733 33.1875 7 C33.86159912 7.34482422 34.53569824 7.68964844 35.23022461 8.04492188 C51.89338079 16.8832773 64.26596787 31.80335882 70.3359375 49.64453125 C70.59632813 50.54558594 70.85671875 51.44664062 71.125 52.375 C71.48335937 53.61121094 71.84171875 54.84742188 72.2109375 56.12109375 C73.31574531 60.63955606 73.43106256 64.990652 73.375 69.625 C73.36158569 70.88050659 73.36158569 70.88050659 73.34790039 72.16137695 C73.02987086 89.23775012 67.86257552 103.97721433 57.125 117.375 C56.59390625 118.06851563 56.0628125 118.76203125 55.515625 119.4765625 C49.27627286 127.17176347 41.65516265 132.4156754 32.5 136.0625 C29.44311257 137.34929585 29.44311257 137.34929585 27.125 139.375 C26.1743351 142.7645202 26.12414041 145.67435617 26.1640625 149.1875 C26.07623543 156.35418905 21.97813514 160.96701447 17.1015625 165.83203125 C10.18473126 171.23153389 3.56001728 171.06100942 -4.875 170.375 C-11.30429792 169.23315669 -16.10734848 165.66765332 -19.875 160.375 C-23.77947747 153.65397446 -24.52121549 147.68422543 -24.375 140 C-24.36218994 138.98067383 -24.34937988 137.96134766 -24.33618164 136.91113281 C-24.14281693 129.75721245 -23.45365714 123.69027731 -19.875 117.375 C-19.35421875 116.4365625 -18.8334375 115.498125 -18.296875 114.53125 C-11.33434665 102.8643106 -2.84567432 96.57922483 9.375 90.9375 C14.08637197 88.64487962 17.29039077 85.78904093 20.125 81.375 C22.13499897 75.34500308 22.25151078 67.92488275 20.32421875 61.8515625 C17.3444228 56.50636151 12.89016608 53.28220751 7.125 51.375 C-0.55197603 50.01963092 -6.4078572 51.17830133 -12.8125 55.6328125 C-18.4716073 60.41304329 -18.99247156 64.58388421 -19.75 71.6875 C-20.69129975 79.82934057 -22.73702113 85.92903808 -29.1640625 91.28125 C-37.07860969 96.74667021 -44.46482437 97.22957754 -53.875 96.375 C-61.05368898 93.92722073 -66.19372796 87.71352591 -69.515625 81.1171875 C-74.01969492 68.7180525 -70.18781105 54.42530251 -65.3671875 42.7109375 C-56.13615719 23.00376117 -40.59279226 10.21156998 -20.60986328 2.50097656 C-13.72585936 0.15589157 -7.22750357 -0.07607898 0 0 Z " fill="#040302" transform="translate(354.875,189.625)"/>
<path d="M0 0 C12.43781846 8.1907585 20.94274241 20.51133687 24.875 34.875 C27.79966586 50.56695719 24.99641119 66.13823833 16.5625 79.6875 C13.79002354 83.27631675 10.78358255 86.49979654 7.5625 89.6875 C6.97082031 90.31269531 6.37914062 90.93789063 5.76953125 91.58203125 C0.93940885 96.30552843 -4.66950428 98.99812605 -10.80297852 101.67236328 C-15.52912369 103.83174727 -18.108931 105.83043435 -20.4375 110.6875 C-20.92622048 114.53617376 -20.93751888 118.25234353 -20.96875 122.12890625 C-21.50646392 126.21105111 -22.56267252 127.80730904 -25.4375 130.6875 C-28.63923254 132.28836627 -31.96327059 132.18667089 -35.4375 131.6875 C-38.2475346 129.89386089 -39.94690468 128.66869065 -41.4375 125.6875 C-42.35190179 116.24204478 -42.94542749 105.78638404 -37.4375 97.6875 C-37.01339844 96.9965625 -36.58929688 96.305625 -36.15234375 95.59375 C-30.56025689 87.24456182 -22.11403389 83.33762301 -13.234375 79.1796875 C-8.54561276 76.67814116 -5.20691974 73.82734511 -2.3125 69.375 C-1.83554687 68.65699219 -1.35859375 67.93898438 -0.8671875 67.19921875 C4.48555969 57.79534869 5.83137428 47.14826794 2.99121094 36.55712891 C-0.21755257 27.72757218 -5.52110779 20.57876859 -14.02734375 16.421875 C-23.78478202 12.35269369 -34.52665281 10.49448471 -44.75 14.25 C-55.08660597 19.12127408 -60.85033563 25.88232511 -65.5703125 36.15234375 C-66.51035915 38.90049816 -66.73948852 41.22998204 -66.875 44.125 C-67.32618081 49.80681934 -68.22195609 53.77967052 -72.6875 57.625 C-76.40869362 59.0627339 -78.6045238 58.71419005 -82.4375 57.6875 C-85.78961493 55.50133809 -87.16436604 54.50690188 -88.4375 50.6875 C-89.92110289 35.36504388 -84.02102189 21.86066958 -74.6875 9.9375 C-55.09132675 -11.43066764 -24.42730212 -14.20191984 0 0 Z " fill="#F6F4F5" transform="translate(387.4375,213.3125)"/>
<path d="M0 0 C13.25306754 8.59995292 21.87591923 22.33964884 25.4921875 37.6171875 C27.16334683 55.09671832 23.97207939 70.45031113 13.19921875 84.63671875 C5.26614656 93.85623507 -3.91884913 99.17801783 -14.9765625 103.96484375 C-18.29348808 106.13005906 -19.17589333 107.90369101 -20.5078125 111.6171875 C-20.85647644 115.44843664 -20.88301315 119.21289512 -20.90625 123.05859375 C-21.64790308 127.44590518 -23.10423297 128.85627782 -26.5078125 131.6171875 C-29.41077055 133.06866653 -31.28043029 132.98957775 -34.5078125 132.6171875 C-37.43718904 130.80408608 -39.94429199 128.74422851 -41.5078125 125.6171875 C-42.12869967 115.76442054 -42.6253097 106.39969094 -37.5078125 97.6171875 C-37.16878906 96.988125 -36.82976562 96.3590625 -36.48046875 95.7109375 C-32.07348952 88.55939825 -24.57268582 84.51992345 -17.16162109 81.04370117 C-6.45246362 76.01854759 -1.01389235 69.56584432 3.4921875 58.6171875 C6.46146066 49.33111666 4.87064994 39.12798579 0.4921875 30.6171875 C-4.72459954 22.06219736 -12.23748252 15.89898154 -21.9375 13.09375 C-32.26853633 11.1782691 -41.43204123 12.24453176 -50.5078125 17.6171875 C-58.76792691 23.48591214 -63.33088447 30.0864034 -66.5078125 39.6171875 C-66.63281534 41.38667208 -66.73453977 43.15786798 -66.8203125 44.9296875 C-67.23584228 49.83813304 -68.13333388 52.85705418 -71.5078125 56.6171875 C-74.70660679 58.96296998 -77.61434139 59.09393906 -81.5078125 58.6171875 C-85.00703017 56.39041262 -86.95432163 54.43217615 -88.5078125 50.6171875 C-90.28235658 38.25728161 -85.28730264 25.74884239 -78.5078125 15.6171875 C-59.00001477 -9.355689 -27.59289872 -16.07586273 0 0 Z " fill="#036FC9" transform="translate(151.5078125,155.3828125)"/>
<path d="M0 0 C-2.38090175 2.44892751 -4.62325843 4.73917891 -7.4375 6.6875 C-15.25397548 13.74139251 -20.53631403 26.33383395 -21.25726891 36.69861794 C-21.27069726 38.04556746 -21.27350109 39.39265179 -21.26742554 40.73965454 C-21.27195665 41.48783679 -21.27648776 42.23601905 -21.28115618 43.00687349 C-21.29375041 45.49764759 -21.29218304 47.98820162 -21.29052734 50.47900391 C-21.29651585 52.27173135 -21.30332214 54.06445623 -21.31088257 55.85717773 C-21.32852055 60.71699908 -21.33323712 65.57674995 -21.33451414 70.43660021 C-21.33593796 73.4775506 -21.34021203 76.5184832 -21.34550858 79.55942917 C-21.36400416 90.18204633 -21.3721801 100.80461336 -21.37060547 111.42724609 C-21.36940539 121.30596042 -21.39048283 131.1844558 -21.4220928 141.06311476 C-21.44831157 149.56191294 -21.45897036 158.06063989 -21.45769465 166.55947816 C-21.45718651 171.62753588 -21.46278734 176.6953991 -21.48405075 181.76341629 C-21.50352675 186.53566165 -21.50349403 191.3075289 -21.48901749 196.07978821 C-21.4869396 197.8223514 -21.49156881 199.56493885 -21.5037384 201.30746078 C-21.59938586 215.96294961 -19.73233502 229.29104617 -10 241 C-9.5183136 241.65389206 -9.0366272 242.30778412 -8.54034424 242.98149109 C-4.27152284 247.80240351 -0.49704368 249.47592895 5.77724075 249.91439533 C10.44945256 250.06834553 15.11129415 250.04866541 19.78515625 250 C21.8125514 250.00752551 23.83993628 250.01856561 25.86729431 250.03295898 C31.17932336 250.06129946 36.49014181 250.04216399 41.80212402 250.01287842 C47.23209394 249.99143015 52.66184899 250.01524196 58.09179688 250.03515625 C68.72813718 250.06753915 79.36374864 250.04972915 90 250 C90 250.33 90 250.66 90 251 C77.5773547 251.09301047 65.15479335 251.16392202 52.7318697 251.20724869 C46.96231528 251.22805178 41.19300052 251.25623569 35.42358398 251.30175781 C29.84738523 251.34547603 24.27141584 251.36919174 18.69505882 251.37950897 C16.57616762 251.38685393 14.45728782 251.40119593 12.33849525 251.42292023 C-4.97658669 251.59326394 -18.67805756 250.45784116 -31.99609375 238.15625 C-39.96857044 229.78943576 -43.15020443 219.87788486 -43.14717102 208.52536011 C-43.15084771 207.78155913 -43.1545244 207.03775814 -43.1583125 206.27141774 C-43.1693092 203.78363991 -43.17318635 201.29590392 -43.17700195 198.80810547 C-43.18326967 197.02228158 -43.18991675 195.23645899 -43.19691467 193.45063782 C-43.2179221 187.58949689 -43.22831449 181.7283558 -43.23828125 175.8671875 C-43.24233015 173.84633496 -43.24644712 171.82548255 -43.25063133 169.80463028 C-43.26967632 160.30857593 -43.28390837 150.81252931 -43.2922433 141.31645954 C-43.30201113 130.36979026 -43.32832177 119.42332343 -43.36874419 108.47672546 C-43.39894602 100.00603279 -43.41371607 91.53539802 -43.41702431 83.06465256 C-43.41937028 78.01002964 -43.42827164 72.95562317 -43.45348549 67.9010582 C-43.47684222 63.1419943 -43.48096897 58.38328821 -43.47072411 53.62418175 C-43.47023047 51.88399881 -43.47649977 50.1437978 -43.49028015 48.40366936 C-43.60079185 33.61315167 -41.19457491 22.30191667 -31 11 C-21.75077217 2.85402974 -12.27047268 -0.83980421 0 0 Z " fill="#FB7C42" transform="translate(258,181)"/>
<path d="M0 0 C0.68384766 0.00902344 1.36769531 0.01804687 2.07226562 0.02734375 C3.73583287 0.05061042 5.39921631 0.08646833 7.0625 0.125 C7.0625 0.455 7.0625 0.785 7.0625 1.125 C6.30066406 1.104375 5.53882813 1.08375 4.75390625 1.0625 C-2.58308997 1.20905673 -6.73417696 2.42407903 -11.90625 7.69921875 C-23.29811335 21.30373248 -25.54437352 34.99296723 -25.43920898 52.11743164 C-25.44300021 53.89296393 -25.44850683 55.66849326 -25.45558167 57.4440155 C-25.46944776 62.22915061 -25.45842959 67.01392258 -25.44187045 71.79903722 C-25.42793274 76.82756986 -25.43448982 81.85608327 -25.43800354 86.8846283 C-25.44069856 95.32491854 -25.42729034 103.76506601 -25.40405273 112.20532227 C-25.3774389 121.93874423 -25.37570134 131.67192774 -25.3874411 141.40537363 C-25.39825026 150.80212941 -25.39200777 160.19879962 -25.37788582 169.59554863 C-25.37215407 173.57969645 -25.37218642 177.56378109 -25.37695122 181.54792976 C-25.38175194 186.24554204 -25.37149218 190.94289586 -25.34999657 195.64045906 C-25.34447077 197.35601938 -25.3439243 199.07160474 -25.34894943 200.7871666 C-25.39293913 217.97009955 -22.82385894 232.20740836 -10.90234375 245.21484375 C-10.25394531 245.84519531 -9.60554688 246.47554687 -8.9375 247.125 C-8.08091797 247.97191406 -8.08091797 247.97191406 -7.20703125 248.8359375 C-3.85359339 250.74064403 -0.45231535 250.6960967 3.3125 250.8125 C4.05757812 250.84666016 4.80265625 250.88082031 5.5703125 250.91601562 C7.40052492 250.99814054 9.23148669 251.06325653 11.0625 251.125 C11.0625 251.455 11.0625 251.785 11.0625 252.125 C-5.81865368 252.62150452 -19.08415937 251.00868596 -32.08203125 239.15234375 C-40.49690223 229.95798999 -43.05020979 219.71065356 -43.07794189 207.51701355 C-43.08091302 206.78304881 -43.08388414 206.04908407 -43.0869453 205.29287797 C-43.09556905 202.85043224 -43.09713513 200.40803588 -43.09863281 197.96557617 C-43.10326539 196.20739133 -43.10829064 194.44920748 -43.11367798 192.69102478 C-43.12675973 187.92645737 -43.13323841 183.16190402 -43.13768864 178.39732146 C-43.14062559 175.4173735 -43.14473151 172.43742933 -43.14919281 169.45748329 C-43.16285526 160.12428595 -43.17252861 150.79109734 -43.1763947 141.45789069 C-43.18087554 130.70143916 -43.19842993 119.94511471 -43.2273953 109.18870181 C-43.24903744 100.86150676 -43.2591003 92.5343474 -43.26043582 84.20712453 C-43.26148183 79.23923651 -43.26734642 74.27146814 -43.28525543 69.30360985 C-43.30178044 64.62910416 -43.30387017 59.95480753 -43.29511642 55.28028297 C-43.29434848 53.57032332 -43.29865661 51.86035221 -43.30857468 50.15042114 C-43.38982618 35.26244033 -41.43455402 23.48586241 -31.0546875 12.05078125 C-22.39965933 3.97392298 -11.81197437 -0.20906149 0 0 Z " fill="#FCC143" transform="translate(57.9375,117.875)"/>
<path d="M0 0 C6.44087985 3.6508691 11.44321419 8.86675356 13.6875 16 C14.5689245 24.94016282 13.73243404 31.88451081 9.125 39.625 C3.0267342 45.56690001 -2.29346032 48.392309 -10.9375 48.625 C-19.5302218 48.22734889 -24.27419997 46.42593067 -30.125 40.1875 C-35.25187568 33.80816839 -36.95721444 28.21475369 -36.72265625 20.06640625 C-35.83465814 13.42756323 -32.85260733 8.07818552 -27.9375 3.5625 C-19.53332094 -2.79012358 -9.75176294 -4.40018572 0 0 Z " fill="#030302" transform="translate(131.3125,307)"/>
<path d="M0 0 C6.11086171 3.68758897 11.50430145 9.72220762 13.625 16.5625 C14.58171343 24.42757439 13.82507378 31.74327909 9.625 38.5625 C4.45261257 44.62746756 -1.36277765 47.95225679 -9.23046875 48.91015625 C-16.49048628 49.26901643 -21.63190077 48.08633015 -27.375 43.5625 C-32.55562591 38.77950985 -35.95724964 33.59043863 -36.69140625 26.51171875 C-36.93520856 19.69311866 -36.71990694 14.02830048 -32.375 8.5625 C-23.68242232 -0.53551507 -12.52333963 -5.45250771 0 0 Z " fill="#030201" transform="translate(367.375,364.4375)"/>
<path d="M0 0 C1.3036962 -0.00128164 1.3036962 -0.00128164 2.6337297 -0.00258917 C5.5510677 -0.00423855 8.46834843 0.00126859 11.38568115 0.00672913 C13.47491454 0.00701114 15.56414802 0.00685299 17.65338135 0.00628662 C23.33065802 0.0059992 29.00791366 0.01188701 34.68518543 0.01886058 C40.61625373 0.02510332 46.54732248 0.02569865 52.47839355 0.02688599 C63.71220983 0.02999658 74.9460164 0.03820632 86.17982841 0.04823548 C98.96806834 0.05940504 111.75630873 0.06490919 124.54455233 0.06993091 C150.8532543 0.08038914 177.16194765 0.09798334 203.47064209 0.12025452 C203.47064209 0.45025452 203.47064209 0.78025452 203.47064209 1.12025452 C202.42665504 1.1189557 201.382668 1.11765688 200.30704498 1.1163187 C174.90134927 1.08631136 149.49591143 1.09647216 124.09024811 1.14872074 C111.80420853 1.1730585 99.5184156 1.18435714 87.23236084 1.16493225 C76.52346803 1.14803404 65.81492022 1.15562889 55.1060729 1.1926021 C49.43600356 1.21132403 43.76651766 1.21780324 38.09645081 1.1949482 C32.75771263 1.17381575 27.42004271 1.18547274 22.08139801 1.2220993 C20.12389843 1.22978239 18.16630969 1.22556461 16.20886993 1.20844078 C4.51575859 0.6668656 4.51575859 0.6668656 -5.62298584 5.54284668 C-7.24754713 7.34673178 -7.24754713 7.34673178 -8.52935791 9.12025452 C-9.58703369 10.17212952 -9.58703369 10.17212952 -10.66607666 11.24525452 C-21.1485398 23.91926536 -21.29671501 38.9314699 -21.34185791 54.55775452 C-21.36505972 56.46468345 -21.39043657 58.3715872 -21.41802979 60.27845764 C-21.4841516 64.89295882 -21.50586296 69.50456569 -21.52935791 74.12025452 C-28.45935791 74.12025452 -35.38935791 74.12025452 -42.52935791 74.12025452 C-42.64495582 68.49962706 -42.74423992 62.88321923 -42.80401611 57.26234436 C-42.82896474 55.3556257 -42.8629365 53.44900073 -42.90655518 51.5426178 C-43.2663498 35.39842126 -41.24520167 23.34971116 -29.75592041 11.25306702 C-21.24937258 3.16316643 -11.50913962 -0.04122365 0 0 Z " fill="#0065C1" transform="translate(186.52935791015625,28.879745483398438)"/>
<path d="M0 0 C5.61 0 11.22 0 17 0 C16.77183594 2.04960937 16.54367188 4.09921875 16.30859375 6.2109375 C16.09277337 8.2299023 15.87702969 10.24887603 15.66333008 12.26806641 C15.51465303 13.65518307 15.36240188 15.04192206 15.20629883 16.42822266 C14.31064692 24.40557248 13.68943399 32.02729111 15 40 C11.30451598 42.77161302 8.44301617 43.52524538 3.93359375 43.36328125 C0.85927317 42.78568163 -0.86602169 41.19864432 -3 39 C-4.51617671 35.96764659 -3.9549157 32.9270807 -3.75 29.625 C-3.70625244 28.88709229 -3.66250488 28.14918457 -3.61743164 27.38891602 C-2.98795905 18.18252004 -1.49601658 9.09841533 0 0 Z " fill="#FBC043" transform="translate(75,377)"/>
<path d="M0 0 C0.66 0.33 1.32 0.66 2 1 C0.625 2.5 0.625 2.5 -1 4 C-1.66 4 -2.32 4 -3 4 C-3.26167969 4.57492188 -3.52335937 5.14984375 -3.79296875 5.7421875 C-5.07805748 8.14601043 -6.57051418 10.03152702 -8.3125 12.125 C-16.30412308 22.25990661 -21.1119128 34.55947213 -21.1875 47.5 C-21.20876953 49.15515625 -21.20876953 49.15515625 -21.23046875 50.84375 C-20.91679504 55.13948488 -20.05974595 57.94025405 -17 61 C-22.25431335 60.58789699 -25.2354518 59.7645482 -29 56 C-32.48945995 45.53162015 -29.12157462 34.2733824 -24.38671875 24.7578125 C-18.38970383 14.09349773 -11.17621529 5.58810764 0 0 Z " fill="#D6D4E6" transform="translate(329,211)"/>
<path d="M0 0 C6.86084418 1.54368994 11.43768534 5.64738106 15.62109375 11.12109375 C20.06771448 18.59091272 19.94197432 26.61729278 19 35 C18.09494407 38.35376054 16.86918465 41.08224834 15 44 C14.443125 44.886875 13.88625 45.77375 13.3125 46.6875 C9.94044723 50.05955277 6.03727194 52.48964501 2 55 C1.34 54.67 0.68 54.34 0 54 C0.38671875 53.52691406 0.7734375 53.05382812 1.171875 52.56640625 C9.26516958 42.28952477 11.49877781 33.39516264 10.3828125 20.36523438 C9.14565911 12.7213938 4.69860807 5.99976107 0 0 Z " fill="#D8D5E7" transform="translate(381,234)"/>
<path d="M0 0 C0.66 0.33 1.32 0.66 2 1 C1.32904297 1.76570313 1.32904297 1.76570313 0.64453125 2.546875 C-9.85776897 15.17650682 -11.18753237 27.06786656 -10 43 C-9.71955736 44.67637729 -9.41950901 46.35291133 -9 48 C-12.56840302 47.75669979 -14.48711645 47.46583848 -17.171875 45.02734375 C-19.6830989 40.8687999 -19.6066802 37.52046012 -19.5 32.75 C-19.48791504 31.89752686 -19.47583008 31.04505371 -19.46337891 30.16674805 C-19.26891824 24.02238032 -18.51339311 19.16611073 -15 14 C-14.57589844 13.3090625 -14.15179688 12.618125 -13.71484375 11.90625 C-10.0890218 6.49276653 -5.57330287 3.26967101 0 0 Z " fill="#DAD7E9" transform="translate(365,297)"/>
<path d="M0 0 C2.8100346 1.79363911 4.50940468 3.01880935 6 6 C6.5811138 13.08958838 6.5811138 13.08958838 4.125 16.9375 C0.87071886 20.09606699 -1.42411752 20.33855508 -5.9609375 20.2890625 C-9.16544562 19.83478357 -10.82724211 18.30444019 -13 16 C-14.20190901 12.39427296 -14.32670315 9.7897565 -14 6 C-10.26747896 0.27680107 -6.74763808 -0.96948823 0 0 Z " fill="#F3F1F3" transform="translate(360,378)"/>
<path d="M0 0 C3.5386994 1.65139305 4.81070153 2.71605229 7 6 C7.51853954 10.51870169 7.69360888 13.68035572 5.0625 17.5 C1.4785795 20.42564939 -0.33520382 20.82821175 -4.84375 20.53515625 C-8.27578219 19.68336565 -9.9084859 17.74511226 -12 15 C-13.41000664 12.17998673 -13.24548451 10.12992745 -13 7 C-10.01415562 0.74394511 -6.81497582 -0.58749792 0 0 Z " fill="#026BC5" transform="translate(123,320)"/>
<path d="M0 0 C-0.825 0.61875 -1.65 1.2375 -2.5 1.875 C-5.09656412 4.449497 -5.38895038 6.38575069 -5.4375 10 C-5.25613172 13.6823257 -4.75912798 16.70163503 -3 20 C-9.46850394 19.38976378 -9.46850394 19.38976378 -11.875 17.625 C-14.42689353 13.93893157 -14.37348028 10.3323713 -14 6 C-9.88815502 -0.30482896 -7.02946014 -0.11337839 0 0 Z " fill="#D8D5E7" transform="translate(360,378)"/>
</svg>
