<?xml version="1.0" encoding="UTF-8"?>
<svg version="1.1" xmlns="http://www.w3.org/2000/svg" width="512" height="512">
<path d="M0 0 C4.931493 1.62777796 8.81618906 4.44973419 13 7.4375 C13.74967041 7.97028564 14.49934082 8.50307129 15.27172852 9.05200195 C22.17204068 14.01708453 28.63459141 19.37335678 35 25 C35.80050781 25.68964844 36.60101563 26.37929688 37.42578125 27.08984375 C49.53879171 37.69636215 61.25575367 49.16010863 71 62 C71.95025421 63.22156162 72.90079566 64.44289983 73.8515625 65.6640625 C80.85810954 74.74728653 87.20713897 84.09964899 93 94 C93.3825293 94.64453125 93.76505859 95.2890625 94.15917969 95.953125 C109.31976801 121.80238046 114.90001222 149.60725875 118 179 C138.82550106 156.2458006 141.45316549 133.59519254 141 104 C144.40789481 107.2744771 146.65429058 110.60952576 148.875 114.75 C152.15800635 120.73905045 155.54443179 126.65302936 159.0222168 132.53125 C190.31209932 185.51027378 218.03232172 246.34242808 226 308 C226.0928125 308.71736328 226.185625 309.43472656 226.28125 310.17382812 C231.07829989 351.66830964 223.71229875 395.86407572 198.74609375 430.08984375 C196.5707559 432.80220597 194.31870221 435.40942316 192 438 C191.15824219 438.97324219 190.31648438 439.94648438 189.44921875 440.94921875 C164.02886405 469.94452902 125.82406618 489.42349423 88 496 C86.27561536 496.0926693 84.54832491 496.13882971 82.82147217 496.14717102 C81.79895859 496.15432632 80.77644501 496.16148163 79.72294617 496.16885376 C78.61135635 496.17154266 77.49976654 496.17423157 76.35449219 496.17700195 C75.17472305 496.18357315 73.99495392 496.19014435 72.7794342 496.19691467 C68.86858766 496.21664296 64.95775469 496.22832998 61.046875 496.23828125 C59.69002514 496.24233418 58.33317547 496.24645125 56.97632599 496.25063133 C50.58241203 496.26969233 44.18850949 496.2839072 37.79457259 496.2922433 C30.4793686 496.3019429 23.16447311 496.32806464 15.84937739 496.36874419 C10.15890953 496.39926973 4.468528 496.413747 -1.22201991 496.41702431 C-4.60158462 496.41933892 -7.98056338 496.42989864 -11.36008453 496.45348549 C-33.272535 496.59674519 -54.43223848 494.67653807 -75.5625 488.625 C-77.18176392 488.17338501 -77.18176392 488.17338501 -78.83374023 487.71264648 C-87.42195265 485.26925407 -95.79357593 482.52036942 -104 479 C-105.02480469 478.5656665 -105.02480469 478.5656665 -106.0703125 478.12255859 C-133.62494915 466.28032725 -157.53412365 447.36295728 -169 419 C-179.83243363 388.6368502 -177.26536998 355.00709037 -164.07373047 325.96044922 C-155.95972951 308.93695701 -144.08364516 293.95590563 -132.109375 279.5078125 C-119.12348777 263.6789915 -112.57851997 247.24353574 -114.19140625 226.54345703 C-115.37663199 216.0913519 -117.78535016 206.00294595 -121 196 C-116.48112579 196.54697733 -113.27188134 198.45586428 -109.5625 200.9375 C-108.95486816 201.33791504 -108.34723633 201.73833008 -107.72119141 202.15087891 C-105.80600064 203.42225007 -103.90188548 204.70882512 -102 206 C-101.39881348 206.40460449 -100.79762695 206.80920898 -100.17822266 207.22607422 C-80.41646536 220.60434572 -68.2349941 234.84762239 -59 257 C-58.9906543 256.1970752 -58.98130859 255.39415039 -58.97167969 254.56689453 C-58.31923221 209.58000119 -49.87996456 172.34496346 -22.07421875 136.3203125 C7.42922213 98.04804667 7.42922213 98.04804667 14.29614258 51.6640625 C12.10412884 35.38138453 7.53523584 19.83266871 1.1015625 4.73828125 C0 2 0 2 0 0 Z " fill="#FE6500" transform="translate(230,8)"/>
<path d="M0 0 C0.66 0 1.32 0 2 0 C12.04515803 13.61978634 16.84462768 28.60828914 20 45 C20.19980469 45.99902344 20.39960938 46.99804688 20.60546875 48.02734375 C20.73566406 48.67832031 20.86585938 49.32929688 21 50 C27.91603767 41.18149242 30.90682286 34.42000178 31.5625 23.1875 C31.62727539 22.14819336 31.62727539 22.14819336 31.69335938 21.08789062 C31.79861453 19.39211314 31.89972863 17.69607948 32 16 C34.95215115 18.74739368 36.9675653 21.35997498 38.8828125 24.90234375 C39.40520508 25.86390381 39.92759766 26.82546387 40.46582031 27.81616211 C41.28711426 29.36122437 41.28711426 29.36122437 42.125 30.9375 C42.69831055 32.0107251 43.27162109 33.0839502 43.86230469 34.18969727 C58.29051916 61.40619142 71.31575913 89.96755673 74 121 C74.12761719 122.43085938 74.12761719 122.43085938 74.2578125 123.890625 C74.97478246 139.85515615 68.30012224 156.7174737 57.6875 168.4375 C45.95544162 180.69505269 31.19164747 187.69495788 14.16064453 188.19287109 C9.21594987 188.28255993 4.27059303 188.32202467 -0.67480469 188.35009766 C-2.79047723 188.36656078 -4.90609642 188.39372102 -7.02148438 188.43212891 C-27.78794818 188.80597727 -46.95998566 186.27533496 -62.6171875 171.37890625 C-63.79667969 170.20134766 -63.79667969 170.20134766 -65 169 C-65.72445312 168.28714844 -66.44890625 167.57429687 -67.1953125 166.83984375 C-72.54324857 161.23772821 -75.9862777 155.11200071 -79 148 C-79.37511719 147.12472656 -79.75023437 146.24945313 -80.13671875 145.34765625 C-83.76163842 131.29084104 -81.80280273 115.16411129 -76 102 C-75.55793213 100.98752197 -75.55793213 100.98752197 -75.10693359 99.95458984 C-67.42907361 82.79020083 -55.82409069 69.70831129 -42.5546875 56.5859375 C-39.84692022 53.84504769 -37.3435297 50.99344612 -34.8515625 48.05859375 C-32.63891609 45.59854173 -30.26395913 43.35163231 -27.875 41.0625 C-16.90847931 30.27770257 -8.45615985 18.34867001 -2.390625 4.21875 C-1 1 -1 1 0 0 Z " fill="#FFA410" transform="translate(281,297)"/>
<path d="M0 0 C4.51887421 0.54697733 7.72811866 2.45586428 11.4375 4.9375 C12.34894775 5.53812256 12.34894775 5.53812256 13.27880859 6.15087891 C15.19399936 7.42225007 17.09811452 8.70882512 19 10 C19.60118652 10.40460449 20.20237305 10.80920898 20.82177734 11.22607422 C29.53948378 17.12776818 37.5721037 23.51461224 45 31 C45.80953125 31.80308594 46.6190625 32.60617188 47.453125 33.43359375 C49 36 49 36 48.5078125 39.015625 C43.81648986 49.98854915 37.76002703 58.35459867 30.24121094 67.50097656 C13.21045464 88.33985229 -1.97966884 110.46489108 -8 137 C-8.26490234 137.92594971 -8.26490234 137.92594971 -8.53515625 138.87060547 C-10.58963876 146.57674926 -10.39626243 154.45990069 -10.375 162.375 C-10.37445618 163.1312265 -10.37391235 163.887453 -10.37335205 164.66659546 C-10.31659788 181.81202922 -8.30868802 196.70719741 0 212 C0.51304688 213.00289062 1.02609375 214.00578125 1.5546875 215.0390625 C5.94505168 223.16858852 11.51670764 229.51670764 18 236 C18.71929687 236.71929687 19.43859375 237.43859375 20.1796875 238.1796875 C24.61821059 242.35022429 29.45545511 245.80146969 34.5 249.1875 C35.15057373 249.62441162 35.80114746 250.06132324 36.47143555 250.51147461 C39.91768666 252.77774747 43.25020483 254.58775516 47.0625 256.1875 C52.458728 259.01698285 53.71113894 264.79801822 55.609375 270.19921875 C59.74965317 281.94069777 67.10353549 290.07543455 78.06640625 295.77734375 C82.59127709 297.66320869 87.14772098 298.45564375 92 299 C92 299.33 92 299.66 92 300 C52.91429816 299.35925079 10.54866534 285.56985512 -20 261 C-21.16789062 260.08154297 -21.16789062 260.08154297 -22.359375 259.14453125 C-41.61262357 243.13429441 -51.1443279 220.45509199 -54 196 C-56.77574509 150.45224891 -39.46769883 117.724821 -11.109375 83.5078125 C1.87651223 67.6789915 8.42148003 51.24353574 6.80859375 30.54345703 C5.62336801 20.0913519 3.21464984 10.00294595 0 0 Z " fill="#D75B1D" transform="translate(109,204)"/>
<path d="M0 0 C6.24583348 3.81682059 12.06415441 7.57605912 17.375 12.625 C18.80972656 13.97464844 18.80972656 13.97464844 20.2734375 15.3515625 C24.53066342 19.48680487 28.69155789 23.67306954 32.6875 28.0625 C33.45449219 28.89910156 34.22148437 29.73570312 35.01171875 30.59765625 C38.44887912 34.75061033 38.44887912 34.75061033 39 37 C38.05560115 39.66762014 37.06936153 41.90016362 35.75 44.375 C35.38229492 45.08180908 35.01458984 45.78861816 34.63574219 46.5168457 C26.27482031 62.15246927 14.53925136 74.6086308 2 86.96875 C-0.46520158 89.47247036 -2.72222006 92.11974091 -5 94.79296875 C-7.00026188 97.00028899 -9.1091851 99.06070273 -11.25756836 101.12280273 C-22.60313878 112.08359639 -30.76186371 124.52808994 -37 139 C-37.27247559 139.62036133 -37.54495117 140.24072266 -37.82568359 140.87988281 C-43.47295278 154.25369124 -45.31412204 172.20655694 -39.875 185.875 C-38.96375022 187.60890582 -38.00738819 189.32012661 -37 191 C-36.36578125 192.25876953 -36.36578125 192.25876953 -35.71875 193.54296875 C-27.62035611 208.7274573 -14.31806146 216.92820623 1.58203125 222.01953125 C6.02654687 223.2944723 10.09558908 224.12303793 14.72338867 224.14526367 C15.63170944 224.15164352 16.54003021 224.15802338 17.47587585 224.16459656 C18.93221184 224.16626579 18.93221184 224.16626579 20.41796875 224.16796875 C21.43039139 224.17129715 22.44281403 224.17462555 23.48591614 224.17805481 C25.62675524 224.18311088 27.7676022 224.18546354 29.90844727 224.18530273 C33.15850081 224.18748057 36.40820997 224.20562663 39.65820312 224.22460938 C41.74479052 224.22754542 43.83137951 224.2295288 45.91796875 224.23046875 C47.359123 224.24124702 47.359123 224.24124702 48.82939148 224.25224304 C66.03871213 224.19494647 80.64799366 218.37571956 93.40234375 206.82421875 C101.99168142 198.0880548 107.36790227 186.87750633 110 175 C110.33 175 110.66 175 111 175 C112.35528139 193.63511913 103.92321317 213.98577557 92 228 C86.5593064 234.20948726 77.85935912 243.54343405 69.02545452 244.13142776 C68.21088189 244.13440243 67.39630926 244.13737709 66.55705261 244.14044189 C65.62229095 244.14615204 64.6875293 244.15186218 63.72444153 244.15774536 C62.69542221 244.15886322 61.66640289 244.15998108 60.60620117 244.16113281 C59.52463745 244.16609772 58.44307373 244.17106262 57.32873535 244.17617798 C53.73347342 244.19083675 50.13825572 244.19761065 46.54296875 244.203125 C44.04348245 244.20887698 41.54399616 244.21463471 39.04450989 244.22039795 C34.46328718 244.22957457 29.88207714 244.23586813 25.30084628 244.2388947 C19.25038061 244.24291452 13.20007105 244.25510162 7.1496582 244.28125 C0.65044457 244.30890119 -5.84863531 244.32165017 -12.34790611 244.32357025 C-14.81844889 244.32658373 -17.28899108 244.33456778 -19.7595005 244.34775543 C-54.4654999 244.51966707 -54.4654999 244.51966707 -69.125 231.625 C-81.39159494 218.68796363 -86.60084645 198.78472805 -86.265625 181.49609375 C-84.84430631 148.71518956 -59.2569106 124.11889107 -37.5625 102.625 C-31.25760011 96.37389732 -25.31609759 90.13023025 -20 83 C-19.39285156 82.20980469 -18.78570312 81.41960937 -18.16015625 80.60546875 C-6.30979888 64.55432824 0.24415047 45.71818386 0.09765625 25.78125 C0.0962413 25.03790405 0.09482635 24.29455811 0.09336853 23.52868652 C0.08783109 21.18574771 0.07529091 18.84290927 0.0625 16.5 C0.05747689 14.89843889 0.05291542 13.29687627 0.04882812 11.6953125 C0.03788227 7.79683712 0.02066196 3.8984355 0 0 Z " fill="#FE8200" transform="translate(243,260)"/>
<path d="M0 0 C4.931493 1.62777796 8.81618906 4.44973419 13 7.4375 C13.74967041 7.97028564 14.49934082 8.50307129 15.27172852 9.05200195 C22.17204068 14.01708453 28.63459141 19.37335678 35 25 C35.80050781 25.68964844 36.60101563 26.37929688 37.42578125 27.08984375 C46.02686399 34.621212 53.96597374 42.87502777 62 51 C61.505 51.99 61.505 51.99 61 53 C60.34 52.34 59.68 51.68 59 51 C57.95332093 54.08840731 56.94817008 57.17609683 56.02734375 60.3046875 C50.88806159 77.14090219 41.33747602 90.92538736 31 105 C30.42523926 105.78342773 29.85047852 106.56685547 29.25830078 107.37402344 C19.61081268 120.50642589 19.61081268 120.50642589 15.53710938 125.95751953 C3.16194832 142.52412462 -5.06504385 159.82657531 -9.75 180 C-9.94875732 180.85279541 -10.14751465 181.70559082 -10.35229492 182.58422852 C-13.5782068 197.32829125 -14.34951581 211.9688939 -14.625 227 C-14.66331249 228.75782901 -14.70237111 230.51564191 -14.7421875 232.2734375 C-14.83669017 236.51548948 -14.92122407 240.75762804 -15 245 C-17.13255608 241.80116588 -18.39315611 238.5629896 -19.75 235 C-26.68349766 217.43570073 -36.33964853 204.57688659 -52 194 C-46.70398575 171.65453639 -35.68627482 154.09637586 -22 136 C8.08591557 96.70029286 8.08591557 96.70029286 13.9375 49 C11.64780547 33.66334072 7.17299625 18.98279888 1.1015625 4.73828125 C0 2 0 2 0 0 Z " fill="#D75C1D" transform="translate(230,8)"/>
<path d="M0 0 C-18.92575659 10.33875826 -37.86497448 18.10565427 -58.8515625 23.234375 C-59.904646 23.49299316 -59.904646 23.49299316 -60.97900391 23.75683594 C-63.24303191 24.02924134 -64.83907404 23.68010068 -67 23 C-66.46632813 22.74347656 -65.93265625 22.48695313 -65.3828125 22.22265625 C-58.08393814 18.47219659 -51.27410972 13.36801181 -46.31640625 6.75390625 C-42.61835736 3.95386586 -38.76212953 4.49357189 -34.25 4.5 C-23.78568824 4.28242789 -14.74999515 2.37217243 -4.75390625 -0.6875 C-3 -1 -3 -1 0 0 Z " fill="#D75C1D" transform="translate(381,480)"/>
</svg>
